<mxfile host="app.diagrams.net" modified="2024-05-12T14:17:41.771Z" agent="Mozilla/5.0 (Windows NT 10.0; Win64; x64) AppleWebKit/537.36 (KHTML, like Gecko) Chrome/121.0.0.0 Safari/537.36 OPR/107.0.0.0" etag="Qt4hA9RV4aiPKATFbroj" version="24.2.3" type="device">
  <diagram name="Page-1" id="JlxdOEAC0VQjDRi7rK_6">
    <mxGraphModel dx="1393" dy="758" grid="1" gridSize="10" guides="1" tooltips="1" connect="1" arrows="1" fold="1" page="1" pageScale="1" pageWidth="850" pageHeight="1100" math="0" shadow="0">
      <root>
        <mxCell id="0" />
        <mxCell id="1" parent="0" />
        <mxCell id="TiacPBzPEsXQOt-zeXgz-1" value="&lt;font style=&quot;font-size: 18px;&quot;&gt;0&lt;/font&gt;" style="ellipse;shape=doubleEllipse;html=1;dashed=0;whiteSpace=wrap;aspect=fixed;" vertex="1" parent="1">
          <mxGeometry x="395" y="110" width="70" height="70" as="geometry" />
        </mxCell>
        <mxCell id="TiacPBzPEsXQOt-zeXgz-3" value="" style="endArrow=classic;html=1;rounded=0;entryX=0.5;entryY=0;entryDx=0;entryDy=0;" edge="1" parent="1" target="TiacPBzPEsXQOt-zeXgz-1">
          <mxGeometry width="50" height="50" relative="1" as="geometry">
            <mxPoint x="430" y="40" as="sourcePoint" />
            <mxPoint x="455" y="90" as="targetPoint" />
          </mxGeometry>
        </mxCell>
        <mxCell id="TiacPBzPEsXQOt-zeXgz-25" style="edgeStyle=orthogonalEdgeStyle;rounded=0;orthogonalLoop=1;jettySize=auto;html=1;exitX=0.5;exitY=1;exitDx=0;exitDy=0;entryX=0.5;entryY=0;entryDx=0;entryDy=0;" edge="1" parent="1" source="TiacPBzPEsXQOt-zeXgz-4" target="TiacPBzPEsXQOt-zeXgz-24">
          <mxGeometry relative="1" as="geometry" />
        </mxCell>
        <mxCell id="TiacPBzPEsXQOt-zeXgz-4" value="&lt;font style=&quot;font-size: 18px;&quot;&gt;1&lt;/font&gt;" style="shape=ellipse;html=1;dashed=0;whiteSpace=wrap;aspect=fixed;perimeter=ellipsePerimeter;" vertex="1" parent="1">
          <mxGeometry x="210" y="660" width="70" height="70" as="geometry" />
        </mxCell>
        <mxCell id="TiacPBzPEsXQOt-zeXgz-26" style="edgeStyle=orthogonalEdgeStyle;rounded=0;orthogonalLoop=1;jettySize=auto;html=1;exitX=0.5;exitY=1;exitDx=0;exitDy=0;entryX=0.5;entryY=0;entryDx=0;entryDy=0;" edge="1" parent="1" source="TiacPBzPEsXQOt-zeXgz-5" target="TiacPBzPEsXQOt-zeXgz-24">
          <mxGeometry relative="1" as="geometry">
            <mxPoint x="415" y="720" as="targetPoint" />
          </mxGeometry>
        </mxCell>
        <mxCell id="TiacPBzPEsXQOt-zeXgz-5" value="&lt;font style=&quot;font-size: 18px;&quot;&gt;2&lt;/font&gt;" style="shape=ellipse;html=1;dashed=0;whiteSpace=wrap;aspect=fixed;perimeter=ellipsePerimeter;" vertex="1" parent="1">
          <mxGeometry x="570" y="660" width="70" height="70" as="geometry" />
        </mxCell>
        <mxCell id="TiacPBzPEsXQOt-zeXgz-12" style="edgeStyle=orthogonalEdgeStyle;rounded=0;orthogonalLoop=1;jettySize=auto;html=1;exitX=0.5;exitY=1;exitDx=0;exitDy=0;exitPerimeter=0;entryX=0.5;entryY=0;entryDx=0;entryDy=0;" edge="1" parent="1" source="TiacPBzPEsXQOt-zeXgz-10" target="TiacPBzPEsXQOt-zeXgz-6">
          <mxGeometry relative="1" as="geometry" />
        </mxCell>
        <mxCell id="TiacPBzPEsXQOt-zeXgz-10" value="While State is 0" style="points=[[0.25,0,0],[0.5,0,0],[0.75,0,0],[1,0.25,0],[1,0.5,0],[1,0.75,0],[0.75,1,0],[0.5,1,0],[0.25,1,0],[0,0.75,0],[0,0.5,0],[0,0.25,0]];shape=mxgraph.bpmn.task;whiteSpace=wrap;rectStyle=rounded;size=10;html=1;container=1;expand=0;collapsible=0;taskMarker=abstract;isLoopStandard=1;" vertex="1" parent="1">
          <mxGeometry x="370" y="250" width="120" height="80" as="geometry" />
        </mxCell>
        <mxCell id="TiacPBzPEsXQOt-zeXgz-11" style="edgeStyle=orthogonalEdgeStyle;rounded=0;orthogonalLoop=1;jettySize=auto;html=1;exitX=0.5;exitY=1;exitDx=0;exitDy=0;entryX=0.5;entryY=0;entryDx=0;entryDy=0;entryPerimeter=0;" edge="1" parent="1" source="TiacPBzPEsXQOt-zeXgz-1" target="TiacPBzPEsXQOt-zeXgz-10">
          <mxGeometry relative="1" as="geometry" />
        </mxCell>
        <mxCell id="TiacPBzPEsXQOt-zeXgz-14" style="edgeStyle=orthogonalEdgeStyle;rounded=0;orthogonalLoop=1;jettySize=auto;html=1;exitX=0.5;exitY=1;exitDx=0;exitDy=0;entryX=0.5;entryY=0;entryDx=0;entryDy=0;" edge="1" parent="1" source="TiacPBzPEsXQOt-zeXgz-6" target="TiacPBzPEsXQOt-zeXgz-13">
          <mxGeometry relative="1" as="geometry" />
        </mxCell>
        <mxCell id="TiacPBzPEsXQOt-zeXgz-18" style="edgeStyle=orthogonalEdgeStyle;rounded=0;orthogonalLoop=1;jettySize=auto;html=1;exitX=0.5;exitY=1;exitDx=0;exitDy=0;entryX=0.5;entryY=0;entryDx=0;entryDy=0;" edge="1" parent="1" source="TiacPBzPEsXQOt-zeXgz-6" target="TiacPBzPEsXQOt-zeXgz-17">
          <mxGeometry relative="1" as="geometry" />
        </mxCell>
        <mxCell id="TiacPBzPEsXQOt-zeXgz-32" style="edgeStyle=orthogonalEdgeStyle;rounded=0;orthogonalLoop=1;jettySize=auto;html=1;exitX=1;exitY=0.5;exitDx=0;exitDy=0;entryX=0;entryY=0.5;entryDx=0;entryDy=0;" edge="1" parent="1" source="TiacPBzPEsXQOt-zeXgz-6" target="TiacPBzPEsXQOt-zeXgz-31">
          <mxGeometry relative="1" as="geometry" />
        </mxCell>
        <mxCell id="TiacPBzPEsXQOt-zeXgz-6" value="Read from &#xa;File or &#xa;use Keyboard &#xa;or Quit?" style="rhombus;" vertex="1" parent="1">
          <mxGeometry x="361" y="375" width="138" height="135" as="geometry" />
        </mxCell>
        <mxCell id="TiacPBzPEsXQOt-zeXgz-15" style="edgeStyle=orthogonalEdgeStyle;rounded=0;orthogonalLoop=1;jettySize=auto;html=1;exitX=0.5;exitY=1;exitDx=0;exitDy=0;entryX=0.5;entryY=0;entryDx=0;entryDy=0;" edge="1" parent="1" source="TiacPBzPEsXQOt-zeXgz-13" target="TiacPBzPEsXQOt-zeXgz-4">
          <mxGeometry relative="1" as="geometry" />
        </mxCell>
        <mxCell id="TiacPBzPEsXQOt-zeXgz-13" value="File" style="shape=hexagon;perimeter=hexagonPerimeter2;whiteSpace=wrap;html=1;size=0.25" vertex="1" parent="1">
          <mxGeometry x="195" y="560" width="100" height="50" as="geometry" />
        </mxCell>
        <mxCell id="TiacPBzPEsXQOt-zeXgz-19" style="edgeStyle=orthogonalEdgeStyle;rounded=0;orthogonalLoop=1;jettySize=auto;html=1;exitX=0.5;exitY=1;exitDx=0;exitDy=0;entryX=0.5;entryY=0;entryDx=0;entryDy=0;" edge="1" parent="1" source="TiacPBzPEsXQOt-zeXgz-17" target="TiacPBzPEsXQOt-zeXgz-5">
          <mxGeometry relative="1" as="geometry" />
        </mxCell>
        <mxCell id="TiacPBzPEsXQOt-zeXgz-17" value="Keyboard" style="shape=hexagon;perimeter=hexagonPerimeter2;whiteSpace=wrap;html=1;size=0.25" vertex="1" parent="1">
          <mxGeometry x="555" y="560" width="100" height="50" as="geometry" />
        </mxCell>
        <mxCell id="TiacPBzPEsXQOt-zeXgz-23" value="Stop" style="shape=ellipse;html=1;dashed=0;whiteSpace=wrap;aspect=fixed;strokeWidth=5;perimeter=ellipsePerimeter;" vertex="1" parent="1">
          <mxGeometry x="730" y="610" width="70" height="70" as="geometry" />
        </mxCell>
        <mxCell id="TiacPBzPEsXQOt-zeXgz-29" style="edgeStyle=orthogonalEdgeStyle;rounded=0;orthogonalLoop=1;jettySize=auto;html=1;exitX=1;exitY=0.5;exitDx=0;exitDy=0;entryX=0;entryY=0.5;entryDx=0;entryDy=0;" edge="1" parent="1" source="TiacPBzPEsXQOt-zeXgz-24" target="TiacPBzPEsXQOt-zeXgz-28">
          <mxGeometry relative="1" as="geometry" />
        </mxCell>
        <mxCell id="TiacPBzPEsXQOt-zeXgz-34" style="edgeStyle=orthogonalEdgeStyle;rounded=0;orthogonalLoop=1;jettySize=auto;html=1;exitX=0;exitY=0.5;exitDx=0;exitDy=0;entryX=1;entryY=0.5;entryDx=0;entryDy=0;" edge="1" parent="1" source="TiacPBzPEsXQOt-zeXgz-24" target="TiacPBzPEsXQOt-zeXgz-27">
          <mxGeometry relative="1" as="geometry" />
        </mxCell>
        <mxCell id="TiacPBzPEsXQOt-zeXgz-24" value="Repeat?" style="rhombus;" vertex="1" parent="1">
          <mxGeometry x="391.5" y="850" width="77" height="77" as="geometry" />
        </mxCell>
        <mxCell id="TiacPBzPEsXQOt-zeXgz-27" value="Yes" style="shape=hexagon;perimeter=hexagonPerimeter2;whiteSpace=wrap;html=1;size=0.25" vertex="1" parent="1">
          <mxGeometry x="180" y="863.5" width="100" height="50" as="geometry" />
        </mxCell>
        <mxCell id="TiacPBzPEsXQOt-zeXgz-30" style="edgeStyle=orthogonalEdgeStyle;rounded=0;orthogonalLoop=1;jettySize=auto;html=1;exitX=1;exitY=0.5;exitDx=0;exitDy=0;entryX=0.5;entryY=1;entryDx=0;entryDy=0;" edge="1" parent="1" source="TiacPBzPEsXQOt-zeXgz-28" target="TiacPBzPEsXQOt-zeXgz-23">
          <mxGeometry relative="1" as="geometry" />
        </mxCell>
        <mxCell id="TiacPBzPEsXQOt-zeXgz-28" value="No" style="shape=hexagon;perimeter=hexagonPerimeter2;whiteSpace=wrap;html=1;size=0.25" vertex="1" parent="1">
          <mxGeometry x="580" y="863.5" width="100" height="50" as="geometry" />
        </mxCell>
        <mxCell id="TiacPBzPEsXQOt-zeXgz-33" style="edgeStyle=orthogonalEdgeStyle;rounded=0;orthogonalLoop=1;jettySize=auto;html=1;exitX=1;exitY=0.5;exitDx=0;exitDy=0;entryX=0.5;entryY=0;entryDx=0;entryDy=0;" edge="1" parent="1" source="TiacPBzPEsXQOt-zeXgz-31" target="TiacPBzPEsXQOt-zeXgz-23">
          <mxGeometry relative="1" as="geometry" />
        </mxCell>
        <mxCell id="TiacPBzPEsXQOt-zeXgz-31" value="Quit" style="shape=hexagon;perimeter=hexagonPerimeter2;whiteSpace=wrap;html=1;size=0.25" vertex="1" parent="1">
          <mxGeometry x="600" y="417.5" width="100" height="50" as="geometry" />
        </mxCell>
        <mxCell id="TiacPBzPEsXQOt-zeXgz-35" style="edgeStyle=orthogonalEdgeStyle;rounded=0;orthogonalLoop=1;jettySize=auto;html=1;exitX=0;exitY=0.5;exitDx=0;exitDy=0;entryX=0;entryY=0.5;entryDx=0;entryDy=0;entryPerimeter=0;" edge="1" parent="1" source="TiacPBzPEsXQOt-zeXgz-27" target="TiacPBzPEsXQOt-zeXgz-10">
          <mxGeometry relative="1" as="geometry" />
        </mxCell>
      </root>
    </mxGraphModel>
  </diagram>
</mxfile>
